<svg xmlns="http://www.w3.org/2000/svg" width="32" height="32" viewBox="0 0 24 24" fill="none" stroke="white" stroke-width="2" stroke-linecap="round" stroke-linejoin="round">
  <path d="M2 12c0 3 2.5 6 7.5 7.5 1.5.5 3 .5 4.5.5s3 0 4.5-.5c5-1.5 7.5-4.5 7.5-7.5"/>
  <path d="M12 12L12 2"/>
  <path d="M12 12L8 8"/>
  <path d="M12 12L16 8"/>
  <path d="M2 12c0 3 2.5 6 7.5 7.5"/>
  <path d="M22 12c0 3-2.5 6-7.5 7.5"/>
  <path d="M12 19.5C12 19.5 5 17 5 12"/>
  <path d="M12 19.5C12 19.5 19 17 19 12"/>
</svg>